<?xml version="1.0" encoding="UTF-8"?>
<!DOCTYPE svg PUBLIC "-//W3C//DTD SVG 1.1//EN" "http://www.w3.org/Graphics/SVG/1.1/DTD/svg11.dtd">
<!-- Creator: CorelDRAW 2020 (64-Bit) -->
<svg xmlns="http://www.w3.org/2000/svg" xml:space="preserve" width="100mm" height="100mm" version="1.1" style="shape-rendering:geometricPrecision; text-rendering:geometricPrecision; image-rendering:optimizeQuality; fill-rule:evenodd; clip-rule:evenodd"
viewBox="0 0 10000 10000"
 xmlns:xlink="http://www.w3.org/1999/xlink"
 xmlns:xodm="http://www.corel.com/coreldraw/odm/2003">
 <defs>
  <style type="text/css">
   <![CDATA[
    .fil0 {fill:#040504;fill-rule:nonzero}
   ]]>
  </style>
 </defs>
 <g id="Capa_x0020_1">
  <metadata id="CorelCorpID_0Corel-Layer"/>
  <g>
   <path id="Trazado_1" class="fil0" d="M4996.37 3.83c-0.16,0 -0.16,0 -0.16,0 -2760.94,0 -5000.01,2239.06 -5000.01,4999.94 0,2760.94 2239.07,5000 5000.01,5000 2760.93,0 5000,-2239.06 5000,-5000 0,0 0,0 0,0 0,-2760.88 -2239.07,-4999.94 -5000,-4999.94l0.16 0zm2660.65 5416.87l-5322.13 0c-289.46,-0.11 -524,-234.88 -524,-524.17 0,-0.11 0,-0.34 0,-0.45 0.05,-1758.99 1426.5,-3185.43 3185.48,-3185.43 1758.99,0 3185.43,1426.44 3185.43,3185.43 0,289.4 -234.77,524.17 -524.22,524.17l-0.56 0.45zm0 0l0 0 0 0z" data-name="Trazado 1"/>
  </g>
 </g>
</svg>
